<svg xmlns="http://www.w3.org/2000/svg" xmlns:xlink="http://www.w3.org/1999/xlink" viewBox="0 0 36.62 36.65"><defs><style>.cls-1{fill:url(#linear-gradient);}.cls-2{fill:#006397;}.cls-10,.cls-11,.cls-13,.cls-2,.cls-3,.cls-5{stroke:#000;}.cls-10,.cls-11,.cls-13,.cls-2,.cls-3,.cls-5,.cls-6{stroke-miterlimit:10;}.cls-11,.cls-13,.cls-2,.cls-3,.cls-5,.cls-6{stroke-width:0.06px;}.cls-3{fill:#034d6d;}.cls-4{fill:#b27947;}.cls-5{fill:#cc9864;}.cls-6{fill:#a7c43d;stroke:#0a0101;}.cls-7{fill:#e54545;}.cls-8{fill:#fff;}.cls-9{fill:#607f1c;}.cls-10,.cls-13,.cls-14{fill:none;}.cls-10{stroke-width:0.19px;}.cls-11{fill:#fcf0f3;}.cls-12{fill:#231f1f;}.cls-15{fill:#3a1200;}.cls-16{fill:#310024;}</style><linearGradient id="linear-gradient" x1="18.31" y1="36.62" x2="18.31" gradientUnits="userSpaceOnUse"><stop offset="0" stop-color="#620700"/><stop offset="1" stop-color="#d71700"/></linearGradient></defs><title>Asset 7</title><g id="Layer_2" data-name="Layer 2"><g id="Layer_1-2" data-name="Layer 1"><path class="cls-1" d="M36.62,7.69V28.93a7.58,7.58,0,0,1-1.22,4.13,7.72,7.72,0,0,1-4.71,3.35,7.54,7.54,0,0,1-1.66.21H7.69A7.71,7.71,0,0,1,0,28.93V7.69A7.71,7.71,0,0,1,7.69,0H28.93A7.71,7.71,0,0,1,36.62,7.69Z"/><path class="cls-2" d="M30.59,36.41a7.62,7.62,0,0,1-1.66.21h-.25a1.07,1.07,0,0,1,.32-.16A3.73,3.73,0,0,1,30.59,36.41Z"/><path class="cls-3" d="M36.51,28.93a7.58,7.58,0,0,1-1.21,4.13L36.51,27Z"/><path class="cls-4" d="M36.51,24.86v4.07a7.58,7.58,0,0,1-1.21,4.13,7.77,7.77,0,0,1-4.71,3.35,7.62,7.62,0,0,1-1.66.21h-4q-.6-.34-1.14-.69a8.83,8.83,0,0,1-2.09-1.74h0a1.53,1.53,0,0,1-.16-.26.41.41,0,0,1-.06-.23,1.1,1.1,0,0,1,0-.35,5.44,5.44,0,0,1,.6-1.45c.18-.33.4-.69.64-1.07h0l.1-.15c.23-.36.49-.74.76-1.12l.1-.14h0l.12-.17.06-.08,0-.06.15-.21.05-.07.15-.21.05-.07.57-.75.84-1.07c.21-.27.43-.53.64-.79l.66-.81c.92-1.11,1.7-2,2.09-2.45h0l.26-.3.09,0,.67.13.77.14,1.14.21a1.44,1.44,0,0,1,.24,0A8.6,8.6,0,0,1,36.51,24.86Z"/><path class="cls-5" d="M30.48,33.13,29,36.46l-.07.16H23.38l.37-.69c.94-1.74,2.11-3.78,3.15-5.31a14.26,14.26,0,0,1,.87-1.17h0A2.88,2.88,0,0,1,29,28.38C30.81,28.08,30.48,33.13,30.48,33.13Z"/><path class="cls-6" d="M18.85,36.62H16c.11-.47.19-.76.19-.76Z"/><polygon class="cls-5" points="21.66 34.19 21.66 34.19 20.51 36.62 15.79 36.62 15.95 36.26 16.13 35.24 16.96 33.97 18.08 33.9 18.09 33.9 19.54 33.81 19.55 33.81 21.44 33.7 21.66 34.19"/><g id="Face"><path class="cls-7" d="M13.06,28.27l7.3-.1,4.17.48L26,27.94l-.64,1.91-1.05,1.72-1.22.28-1.67.08a16.77,16.77,0,0,0-1.78.3c-.33.13-2.11.44-2.11.44Z"/><path class="cls-7" d="M13.06,28.27l1.26-.05s6,.9,6.61,1.44,3.66-.84,3.66-.84l2-1.32-4.09-3.74-4,.41-2.05,1.55-2.06,1.55Z"/><polygon class="cls-8" points="12.64 28.3 13.12 29.06 14.67 28.65 14.16 27.33 12.64 28.3"/><polygon class="cls-8" points="16.32 26.78 16.78 28.22 15.56 28.5 14.77 27.43 16.32 26.78"/><polygon class="cls-8" points="18.91 25.88 19.29 26.88 17.64 27.51 17.13 26.29 18.91 25.88"/><polygon class="cls-8" points="22.44 25.36 22.62 26.16 20.84 26.47 20.69 25.58 22.44 25.36"/><polygon class="cls-8" points="18.48 31.17 18.63 32.24 20.9 31.42 20.46 30.41 18.48 31.17"/><polygon class="cls-8" points="22.9 29.85 23.99 29.24 24.35 29.67 23.74 31.04 22.69 30.91 22.9 29.85"/><path class="cls-6" d="M24.6,11.51c2.51-.71,2.53,3.22,2.29,5,0,0-.51,1.15,1.42,1.73,7.56-2.53,5.12,7.89-.91,7,0,0,4.71,6.34-9,8.76l-2.61-.89A81.18,81.18,0,0,0,24,30.19c1.52-1,1.47-4.55-2.34-4.6s-8.94,2.87-8.94,2.87-.53-1.88-1.67-2.38-.79-2.55-.79-2.55L9.5,22.11s-2.21-1.8-1-6.45S11.05,9.39,14,7.13,24.6,11.51,24.6,11.51Z"/><path class="cls-9" d="M26.79,18.53s.4.63-.92,3.1c-.43,1.06,1.1,3.48,1.1,3.48a4.24,4.24,0,0,1-.09-3.29A4.23,4.23,0,0,0,26.79,18.53Z"/><path class="cls-9" d="M31.61,20.53s-2.06-1.64-2.44.74c0,0-.31,1.23-1.16.17,0,0-1.85.67-.2,2.3l2.58-2.11.3.57A1.56,1.56,0,0,0,31.61,20.53Z"/><path class="cls-10" d="M28,21.4s.74,1.1,1.07-.28,1.3-1.36,2.55-.66"/><path class="cls-9" d="M15.81,17.36s.53-.11.54.24l.18-.08s-.16-.64,1.07-.89,3.71-1.06,4.64-.81c0,0,1.06-.63-.83-1.62,0,0,5.48,2.25,3.07,6.2A3.37,3.37,0,0,0,25.87,19s-.37,2.69-2.28,3.59l1.13-.49s-3.9,5.07-7.87-1.14C16.85,21,15.63,18.14,15.81,17.36Z"/><path class="cls-9" d="M9.26,20.26l.55.24s2.19-1.26,2.38-1.06,0-.63-.52-1.13,2.14,1.2,2.14,1.2,1.8,1.44.94,2.79-1.14,1.95-1,2.4-.57,1.93-1,1.81-2.36-.75-1.94-2.25S9.26,20.26,9.26,20.26Z"/><path class="cls-11" d="M9.72,20.7s2.84-1.47,4.09-1.19,1.39,3.63.07,4.14a1.29,1.29,0,0,0-.28,1.24c.16.89-4.62-.68-3.88-4.19"/><path id="_Path_" data-name="&lt;Path&gt;" class="cls-11" d="M16.53,17.71s4.59-2.34,6.45-1,.2,4.47.2,4.47-3.23,2.95-5.69.48S16.53,17.71,16.53,17.71Z"/><circle class="cls-12" cx="18.33" cy="20.42" r="0.5"/><circle class="cls-12" cx="10.81" cy="22.56" r="0.5"/></g><path class="cls-9" d="M16.69,23.71l-2.61,1.34a1.34,1.34,0,0,0,1.76.56C16.92,25,17.14,23.91,16.69,23.71Z"/><path class="cls-13" d="M14.22,23.67s-1,1.31.11,1.45,3.55-.8,2.26-1.58"/><path class="cls-14" d="M36.62,7.69V28.93a7.58,7.58,0,0,1-1.22,4.13,7.72,7.72,0,0,1-4.71,3.35,7.54,7.54,0,0,1-1.66.21H7.69A7.71,7.71,0,0,1,0,28.93V7.69A7.71,7.71,0,0,1,7.69,0H28.93A7.71,7.71,0,0,1,36.62,7.69Z"/><path class="cls-15" d="M8.2,13.51a.18.18,0,0,1,.25,0,.22.22,0,0,1,.08.27,5.89,5.89,0,0,0-.35,2.41,7.87,7.87,0,0,0,4.13-3.62.18.18,0,0,1,.26-.08.21.21,0,0,1,.09.28,4.36,4.36,0,0,0-.32,2c.93-.46,4.73-2.37,5.7-3.54a.17.17,0,0,1,.24,0,.24.24,0,0,1,.09.26,6.2,6.2,0,0,0-.3,1.61,7.86,7.86,0,0,1,3.44-1.85,5.37,5.37,0,0,1,1-.11l.1,0a8.17,8.17,0,0,1,3.26,5,11.34,11.34,0,0,1,.32,3.65,8.35,8.35,0,0,0,.26,2.92c.36-2.05.27-3.89,2.34-4.56a4.77,4.77,0,0,1,2.54,0c-.31-6.43-3.9-8.38-3.93-8.41a.23.23,0,0,1,0-.29,2,2,0,0,1,1.56-.62c-1.55-1.62-5.15-1.37-5.18-1.37a.19.19,0,0,1-.19-.1c-.28-.46-1.41-1.5-5.77-1.06a32.23,32.23,0,0,1-8.57-.69,1.89,1.89,0,0,0,.91,1,.22.22,0,0,1,.14.19.21.21,0,0,1-.1.21C4.52,10,5.49,15.39,6,17.14A22.16,22.16,0,0,1,8.2,13.51Z"/><path class="cls-16" d="M9.84,17.91h0s.18-.12.49-.29a1.59,1.59,0,0,0,.48.66.11.11,0,0,0,.12,0s0,0,.06,0a.12.12,0,0,0,0-.18,1.5,1.5,0,0,1-.41-.58c.3-.16.68-.36,1.13-.58a4.71,4.71,0,0,0,.32.58.12.12,0,0,0,.15.05l0,0a.13.13,0,0,0,0-.18A3.5,3.5,0,0,1,12,16.8c.3-.14.62-.28,1-.42a2.79,2.79,0,0,0,.4.57.13.13,0,0,0,.13,0l0,0a.13.13,0,0,0,0-.18,2.49,2.49,0,0,1-.35-.5q.67-.27,1.41-.51a2.16,2.16,0,0,0,.34.61.12.12,0,0,0,.14,0l0,0a.14.14,0,0,0,0-.18,2.1,2.1,0,0,1-.29-.53c.41-.13.82-.24,1.25-.34a3.21,3.21,0,0,0,.22.46.12.12,0,0,0,.15.06h0a.12.12,0,0,0,.05-.18,2.76,2.76,0,0,1-.18-.39c.4-.09.81-.16,1.22-.21l.2.71a.13.13,0,0,0,.16.09h0a.13.13,0,0,0,.08-.16l-.19-.67q.38,0,.75-.06a.13.13,0,0,0,.13-.13.13.13,0,0,0-.14-.13l-.81.06-.11-.38a.13.13,0,0,0-.25.07l.1.34c-.42.06-.84.13-1.25.22a3.62,3.62,0,0,1-.13-.47.13.13,0,0,0-.16-.1.13.13,0,0,0-.1.15,3.36,3.36,0,0,0,.14.48c-.42.1-.83.22-1.23.34a1.75,1.75,0,0,1,0-.6.14.14,0,0,0-.12-.14.13.13,0,0,0-.14.12,2.08,2.08,0,0,0,.06.7c-.51.16-1,.34-1.45.53a2.38,2.38,0,0,1-.15-.52.13.13,0,0,0-.15-.1.12.12,0,0,0-.1.15,2.75,2.75,0,0,0,.16.56l-1,.42a3.64,3.64,0,0,1-.11-.39.13.13,0,0,0-.26.06c0,.15.09.3.14.44-.44.21-.82.4-1.12.56a1.22,1.22,0,0,1,0-.33.13.13,0,0,0-.12-.14.14.14,0,0,0-.14.12,1.54,1.54,0,0,0,0,.48l-.55.31a.13.13,0,0,0,0,.18A.12.12,0,0,0,9.84,17.91Z"/></g></g></svg>